<mxfile host="app.diagrams.net" agent="Mozilla/5.0 (Windows NT 10.0; Win64; x64) AppleWebKit/537.36 (KHTML, like Gecko) Chrome/129.0.0.0 Safari/537.36 Edg/129.0.0.0" version="24.8.0">
  <diagram name="PÃ¡gina-1" id="1L_iiPnmhD4FV8jMWWae">
    <mxGraphModel dx="1856" dy="3124" grid="1" gridSize="10" guides="1" tooltips="1" connect="1" arrows="1" fold="1" page="1" pageScale="1" pageWidth="2336" pageHeight="1654" math="0" shadow="0">
      <root>
        <mxCell id="0" />
        <mxCell id="1" parent="0" />
        <mxCell id="tEGMZED4t1nQvQpMsg8h-2" value="" style="rounded=0;whiteSpace=wrap;html=1;direction=south;" vertex="1" parent="1">
          <mxGeometry x="200" y="240" width="130" height="150" as="geometry" />
        </mxCell>
        <mxCell id="tEGMZED4t1nQvQpMsg8h-3" value="" style="rounded=0;whiteSpace=wrap;html=1;direction=south;" vertex="1" parent="1">
          <mxGeometry x="200" y="480" width="130" height="150" as="geometry" />
        </mxCell>
        <mxCell id="tEGMZED4t1nQvQpMsg8h-4" value="" style="rounded=0;whiteSpace=wrap;html=1;direction=south;" vertex="1" parent="1">
          <mxGeometry x="200" y="720" width="130" height="150" as="geometry" />
        </mxCell>
        <mxCell id="tEGMZED4t1nQvQpMsg8h-5" value="" style="whiteSpace=wrap;html=1;aspect=fixed;" vertex="1" parent="1">
          <mxGeometry x="700" y="440" width="310" height="310" as="geometry" />
        </mxCell>
        <mxCell id="tEGMZED4t1nQvQpMsg8h-6" value="" style="rounded=0;whiteSpace=wrap;html=1;direction=west;" vertex="1" parent="1">
          <mxGeometry x="1480" y="505" width="310" height="180" as="geometry" />
        </mxCell>
      </root>
    </mxGraphModel>
  </diagram>
</mxfile>
